<svg width="33" height="33" viewBox="0 0 33 33" fill="none" xmlns="http://www.w3.org/2000/svg">
<g id="fi_300221" clip-path="url(#clip0_1193_11669)">
<path id="Vector" d="M31.2917 13.718L18.2392 13.7174C17.6629 13.7174 17.1957 14.1845 17.1957 14.7609V18.9306C17.1957 19.5068 17.6629 19.9741 18.2392 19.9741H25.5896C24.7847 22.0629 23.2824 23.8122 21.3658 24.9237L24.5 30.3493C29.5276 27.4416 32.5 22.3398 32.5 16.6287C32.5 15.8155 32.4401 15.2342 32.3202 14.5796C32.2291 14.0823 31.7973 13.718 31.2917 13.718Z" fill="#167EE6"/>
<path id="Vector_2" d="M16.4999 26.2392C12.9028 26.2392 9.76257 24.2738 8.07601 21.3655L2.65063 24.4926C5.41157 29.2777 10.5837 32.5 16.4999 32.5C19.4023 32.5 22.1408 31.7186 24.4999 30.3568V30.3494L21.3658 24.9237C19.9321 25.7552 18.2731 26.2392 16.4999 26.2392Z" fill="#12B347"/>
<path id="Vector_3" d="M24.5 30.3568V30.3493L21.3658 24.9237C19.9322 25.7551 18.2733 26.2391 16.5 26.2391V32.5C19.4023 32.5 22.141 31.7186 24.5 30.3568Z" fill="#0F993E"/>
<path id="Vector_4" d="M6.76088 16.5C6.76088 14.7269 7.24475 13.0681 8.07606 11.6346L2.65069 8.50745C1.28138 10.8591 0.5 13.5903 0.5 16.5C0.5 19.4098 1.28138 22.1409 2.65069 24.4926L8.07606 21.3654C7.24475 19.9319 6.76088 18.2731 6.76088 16.5Z" fill="#FFD500"/>
<path id="Vector_5" d="M16.4999 6.76088C18.8456 6.76088 21.0003 7.59437 22.6832 8.98081C23.0984 9.32281 23.7018 9.29813 24.0821 8.91781L27.0365 5.96344C27.468 5.53194 27.4373 4.82562 26.9763 4.42575C24.1566 1.97956 20.4879 0.5 16.4999 0.5C10.5837 0.5 5.41157 3.72231 2.65063 8.50744L8.07601 11.6346C9.76257 8.72625 12.9028 6.76088 16.4999 6.76088Z" fill="#FF4B26"/>
<path id="Vector_6" d="M22.6833 8.98081C23.0984 9.32281 23.7019 9.29813 24.0822 8.91781L27.0366 5.96344C27.468 5.53194 27.4373 4.82562 26.9764 4.42575C24.1567 1.9795 20.4879 0.5 16.5 0.5V6.76088C18.8456 6.76088 21.0003 7.59437 22.6833 8.98081Z" fill="#D93F21"/>
</g>
<defs>
<clipPath id="clip0_1193_11669">
<rect width="32" height="32" fill="white" transform="translate(0.5 0.5)"/>
</clipPath>
</defs>
</svg>
